# AST/ASF file generated using VICON BodyLanguage
# -----------------------------------------------
:version 1.10
:name VICON
:units
  mass 1.0
  length 0.45
  angle deg
:documentation
   .ast/.asf automatically generated from VICON data using
   VICON BodyBuilder and BodyLanguage model FoxedUp or BRILLIANT.MOD
:root
   order TX TY TZ RX RY RZ
   axis XYZ
   position 0 0 0  
   orientation 0 -0 0 
:bonedata
  begin
     id 1 
     name lhipjoint
     direction 0.515797 -0.759363 0.396637 
     length 2.47888 
     axis 0 -0 0  XYZ
  end
  begin
     id 2 
     name lfemur
     direction 0.34202 -0.939693 0  
     length 6.81885  
     axis 0 -0 20  XYZ
    dof rx ry rz
    limits (-160.0 20.0)
           (-70.0 70.0)
           (-60.0 70.0)
  end
  begin
     id 3 
     name ltibia
     direction 0.342037 -0.939687 0   
     length 7.89258   
     axis 0 -0 20   XYZ
    dof rx
    limits (-10.0 170.0)
  end
  begin
     id 4 
     name lfoot
     direction 0.173497 -0.476678 0.861787   
     length 2.51543   
     axis -90 -1.13533e-015 20   XYZ
    dof rx rz
    limits (-45.0 90.0)
           (-70.0 20.0)
  end
  begin
     id 5 
     name ltoes
     direction 1.53564e-011 -4.21897e-011 1   
     length 1.21388   
     axis -90 -1.13533e-015 20   XYZ
    dof rx
    limits (-90.0 20.0)
  end
  begin
     id 6 
     name rhipjoint
     direction -0.489454 -0.772941 0.403729   
     length 2.43534  
     axis 0 -0 0  XYZ 
  end
  begin
     id 7 
     name rfemur
     direction -0.34202 -0.939693 0   
     length 7.10357   
     axis 0 -0 -20   XYZ
    dof rx ry rz
    limits (-160.0 20.0)
           (-70.0 70.0)
           (-70.0 60.0)
  end
  begin
     id 8 
     name rtibia
     direction -0.34202 -0.939693 0   
     length 9.16127   
     axis 0 -0 -20   XYZ
    dof rx
    limits (-10.0 170.0)
 end
 begin
     id 9 
     name rfoot
     direction -0.270974 -0.748671 0.605033   
     length 1.74894  
     axis -90 1.13533e-015 -20   XYZ
    dof rx rz
    limits (-45.0 90.0)
           (-20.0 70.0)
  end
  begin
     id 10 
     name rtoes
     direction -1.53557e-011 -4.21759e-011 1   
     length 0.787585   
     axis -90 1.13533e-015 -20   XYZ
    dof rx
    limits (-90.0 20.0)
  end
  begin
     id 11 
     name lowerback
     direction -0.0140249 0.999561 0.0260968   
     length 2.16963   
     axis 0 -0 0   XYZ
    dof rx ry rz
    limits (-20.0 45.0)
           (-30.0 30.0)
           (-30.0 30.0)
  end
  begin
     id 12 
     name upperback
     direction 0.00860018 0.999959 -0.002711   
     length 2.1726   
     axis 0 -0 0   XYZ
    dof rx ry rz
    limits (-20.0 45.0)
           (-30.0 30.0)
           (-30.0 30.0)
  end
  begin
     id 13 
     name thorax
     direction 0.015211 0.999782 -0.0143191   
     length 2.17061   
     axis 0 -0 0   XYZ
    dof rx ry rz
    limits (-20.0 45.0)
           (-30.0 30.0)
           (-30.0 30.0)
  end
  begin
     id 14 
     name lowerneck
     direction -0.0140143 0.999447 0.030145   
     length 2.26749   
     axis 0 -0 0   XYZ
    dof rx ry rz
    limits (-20.0 45.0)
           (-30.0 30.0)
           (-30.0 30.0)
  end
  begin
     id 15 
     name upperneck
     direction 0.118062 0.961438 -0.248392   
     length 2.22728   
     axis 0 -0 0   XYZ
    dof rx ry rz
    limits (-20.0 45.0)
           (-30.0 30.0)
           (-30.0 30.0)
  end
  begin
     id 16
     name head
     direction 0.0431885 0.9954 -0.085514  
     length 2.28786  
     axis 0 -0 0   XYZ
    dof rx ry rz
    limits (-20.0 45.0)
           (-30.0 30.0)
           (-30.0 30.0)
  end
  begin
     id 17 
     name lclavicle
     direction 0.912126 0.409548 0.0172323  
     length 4.31571  
     axis 0 -0 0   XYZ
    dof ry rz
    limits (-20.0 10.0)
           (0.0 20.0)
  end
  begin
     id 18 
     name lhumerus
     direction 1 -4.48977e-011 1.93091e-027   
     length 5.13658   
     axis 180 -30 -90   XYZ
    dof rx ry rz
    limits (-60.0 90.0)
           (-90.0 90.0)
           (-90.0 90.0)
  end
  begin
     id 19
     name lradius
     direction 1 -4.48916e-011 6.84018e-027   
     length 3.22473   
     axis 180 -30 -90   XYZ
    dof rx
    limits (-10.0 170.0)
  end
  begin
     id 20
     name lwrist
     direction 1 -4.48987e-011 7.01981e-027   
     length 1.61236   
     axis -4.37994e-015 90 90   XYZ
    dof ry
    limits (-180.0 0.0)
 end
  begin
     id 21 
     name lhand
     direction 1 -4.49037e-011 1.40335e-026   
     length 0.936406   
     axis -8.96029e-015 90 90   XYZ
    dof rx rz
    limits (-90.0 90.0)
           (-45.0 45.0)
  end
  begin
     id 22 
     name lfingers
     direction 1 -4.48886e-011 2.8104e-026   
     length 0.754955   
     axis -1.79203e-014 90 90   XYZ
    dof rx
    limits (0.0 90.0)
  end
  begin
     id 23
     name lthumb
     direction 0.707107 -6.34937e-011 0.707107   
     length 1.08397   
     axis -90 45 -4.48555e-014   XYZ
    dof rx rz
    limits (-45.0 45.0)
           (-45.0 45.0)
  end
  begin
     id 24 
     name rclavicle
     direction -0.947962 0.317997 0.0156638   
     length 4.86918  
     axis 0 -0 0   XYZ 
    dof ry rz
    limits (-10.0 20.0)
           (-20.0 0.0)
  end
  begin
     id 25 
     name rhumerus
     direction -1 -4.48951e-011 2.80534e-018  
     length 5.60911   
     axis 180 30 90   XYZ
    dof rx ry rz
    limits (-90.0 60.0)
           (-90.0 90.0)
           (-90.0 90.0)
  end
  begin
     id 26 
     name rradius
     direction -1 -4.4898e-011 2.11315e-027   
     length 3.38704   
     axis 180 30 90   XYZ
    dof rx
    limits (-10.0 170.0)
  end
  begin
     id 27 
     name rwrist
     direction -1 -4.48933e-011 7.02314e-027   
     length 1.69352   
     axis -4.37994e-015 -90 -90   XYZ
    dof ry
    limits (-180.0 0.0)
  end
  begin
     id 28
     name rhand
     direction -1 -4.48937e-011 1.40458e-026   
     length 0.755878   
     axis -8.96029e-015 -90 -90   XYZ
    dof rx rz
    limits (-90.0 90.0)
           (-45.0 45.0)
  end
  begin
     id 29
     name rfingers
     direction -1 -4.4901e-011 2.80737e-026   
     length 0.609409   
     axis -1.79203e-014 -90 -90   XYZ
    dof rx
    limits (0.0 90.0)
  end
  begin
     id 30
     name rthumb
     direction -0.707107 -6.34968e-011 0.707107   
     length 0.874992   
     axis -90 -45 4.48555e-014   XYZ
    dof rx rz
    limits (-45.0 45.0)
           (-45.0 45.0)
  end
:hierarchy
  begin
    root lhipjoint rhipjoint lowerback
    lhipjoint lfemur
    lfemur ltibia
    ltibia lfoot
    lfoot ltoes
    rhipjoint rfemur
    rfemur rtibia
    rtibia rfoot
    rfoot rtoes
    lowerback upperback
    upperback thorax
    thorax lowerneck lclavicle rclavicle
    lowerneck upperneck
    upperneck head
    lclavicle lhumerus
    lhumerus lradius
    lradius lwrist
    lwrist lhand lthumb
    lhand lfingers
    rclavicle rhumerus
    rhumerus rradius
    rradius rwrist
    rwrist rhand rthumb
    rhand rfingers
  end

#!OML:ASF C:\ViconDB\ViconDB\414\Spring2016\041811\Spring2016.ASF
:FULLY-SPECIFIED
:DEGREES
93
root 7.71531 17.6992 7.56965 -168.939 -15.3827 178.646
lowerback 5.56789 -4.30999 -4.26972
upperback -0.23704 -6.00715 0.846066
thorax -2.82822 -2.92766 3.70516
lowerneck -12.4021 -5.24845 -18.6382
upperneck 15.1826 -9.26537 24.3539
head 8.86226 -4.0162 10.7193
rclavicle -1.39149e-015 4.96962e-015
rhumerus -90.2893 4.03704 -101.087
rradius 83.1788
rwrist -0.491005
rhand -32.1663 -14.7672
rfingers 7.12502
rthumb -5.40932 -44.6782
lclavicle -1.39149e-015 4.96962e-015
lhumerus -25.1927 -47.4671 99.793
lradius 113.673
lwrist -20.3942
lhand -40.6188 5.67066
lfingers 7.12502
lthumb -13.5642 35.2088
rfemur -53.7084 -10.3208 22.7787
rtibia 66.3939
rfoot -168.034 1.35284
rtoes -7.36663
lfemur 7.29101 -14.5127 -19.2275
ltibia 28.5305
lfoot -3.43272 -2.51255
ltoes -26.4485
94
root 7.73972 17.7784 7.07591 -168.919 -14.8 179.087
lowerback 5.16866 -4.28597 -4.10057
upperback -0.603114 -5.93861 1.15564
thorax -2.97426 -2.88172 3.91049
lowerneck -12.2679 -5.11508 -18.743
upperneck 15.7269 -9.1971 24.2446
head 8.99145 -4.01616 10.7388
rclavicle 4.37823e-014 1.51076e-014
rhumerus -90.895 3.62415 -100.136
rradius 83.6443
rwrist 0.224165
rhand -32.3465 -14.1105
rfingers 7.12502
rthumb -5.58331 -44.0169
lclavicle 4.37823e-014 1.51076e-014
lhumerus -27.4571 -47.7097 100.181
lradius 114.575
lwrist -20.3327
lhand -40.5601 5.09871
lfingers 7.12502
lthumb -13.5076 34.6406
rfemur -52.3388 -9.62031 23.6965
rtibia 61.5103
rfoot -167.305 1.97488
rtoes -6.8488
lfemur 8.45311 -14.5115 -18.7978
ltibia 27.5117
lfoot 1.41386 -0.304962
ltoes -23.9816
95
root 7.75527 17.8607 6.58045 -168.778 -14.1497 179.18
lowerback 4.74593 -4.26863 -3.8122
upperback -1.04194 -5.88967 1.05983
thorax -3.23527 -2.84799 3.63694
lowerneck -12.0433 -4.90007 -18.4355
upperneck 16.3976 -9.19107 24.1334
head 9.13954 -4.0448 10.6742
rclavicle 3.44394e-014 9.54166e-015
rhumerus -91.3265 2.95809 -99.4845
rradius 84.2888
rwrist 0.301183
rhand -32.394 -13.9608
rfingers 7.12502
rthumb -5.62917 -43.866
lclavicle 3.44394e-014 9.54166e-015
lhumerus -30.5155 -48.0891 100.642
lradius 114.898
lwrist -20.9597
lhand -40.6696 6.13429
lfingers 7.12502
lthumb -13.6132 35.6692
rfemur -50.966 -9.30211 24.241
rtibia 57.0603
rfoot -166.247 2.49908
rtoes -7.12949
lfemur 9.26269 -14.2086 -18.7608
ltibia 26.9365
lfoot 5.93492 1.80141
ltoes -21.5329
96
root 7.77495 17.928 6.09827 -168.529 -13.6114 178.986
lowerback 4.12985 -4.19282 -4.15551
upperback -1.31364 -5.78573 1.21201
thorax -3.13142 -2.78825 3.93723
lowerneck -11.7538 -4.83127 -18.6281
upperneck 16.6891 -9.17079 24.0667
head 9.17602 -4.07809 10.707
rclavicle -7.90169e-014 7.95139e-016
rhumerus -91.0046 2.44774 -98.1906
rradius 84.9973
rwrist -0.121504
rhand -32.6307 -14.1237
rfingers 7.12502
rthumb -5.85764 -44.0227
lclavicle -7.90169e-014 7.95139e-016
lhumerus -33.0749 -48.3048 101.257
lradius 115.058
lwrist -18.8448
lhand -40.0891 6.25923
lfingers 7.12502
lthumb -13.0537 35.8308
rfemur -49.8085 -9.43874 24.6801
rtibia 53.328
rfoot -165.325 3.17971
rtoes -6.65936
lfemur 9.57653 -14.0669 -18.963
ltibia 27.0658
lfoot 10.0632 3.83102
ltoes -18.4896
97
root 7.79303 17.9755 5.62127 -168.391 -13.0284 178.705
lowerback 3.44811 -4.06377 -4.85595
upperback -1.37096 -5.61183 1.5843
thorax -2.72239 -2.69901 4.64442
lowerneck -11.7254 -4.91611 -19.0764
upperneck 17.002 -9.17129 23.7832
head 9.27874 -4.11412 10.6987
rclavicle 3.75889e-014 5.64051e-015
rhumerus -90.1853 2.23478 -96.3588
rradius 85.6982
rwrist 0.0248602
rhand -32.6655 -13.8077
rfingers 7.12502
rthumb -5.89127 -43.7058
lclavicle 3.75889e-014 5.64051e-015
lhumerus -35.4556 -48.0587 102.171
lradius 114.312
lwrist -18.6785
lhand -39.7231 7.76971
lfingers 7.12502
lthumb -12.7009 37.3635
rfemur -48.6741 -9.96464 25.2332
rtibia 50.4468
rfoot -164.527 3.48202
rtoes -6.30533
lfemur 9.6907 -13.8319 -19.3414
ltibia 27.9223
lfoot 13.612 4.96284
ltoes -15.2981
98
root 7.80802 17.9971 5.15486 -168.259 -12.4578 178.104
lowerback 2.99944 -3.9756 -5.38366
upperback -1.51364 -5.50344 1.48205
thorax -2.59305 -2.63881 4.79716
lowerneck -11.4753 -4.87275 -19.0245
upperneck 17.1978 -9.18538 23.6113
head 9.28267 -4.151 10.6267
rclavicle 4.10677e-014 -3.93842e-015
rhumerus -89.2439 1.67559 -95.1896
rradius 86.3554
rwrist 0.419393
rhand -33.1947 -14.023
rfingers 7.12502
rthumb -6.40218 -43.9063
lclavicle 4.10677e-014 -3.93842e-015
lhumerus -38.2619 -47.3296 102.669
lradius 112.965
lwrist -18.3856
lhand -39.1991 7.39057
lfingers 7.12502
lthumb -12.1956 37.015
rfemur -47.7217 -10.7919 25.5169
rtibia 48.5394
rfoot -164.393 3.22783
rtoes -6.61049
lfemur 9.41231 -13.5978 -20.1129
ltibia 29.5796
lfoot 16.5761 5.90109
ltoes -11.0419
99
root 7.81689 17.9951 4.69664 -168.396 -11.9205 177.668
lowerback 2.35922 -3.8371 -6.09588
upperback -1.22363 -5.29487 1.74725
thorax -1.87085 -2.55491 5.39556
lowerneck -11.6437 -5.06609 -19.3438
upperneck 17.2945 -9.23723 23.2377
head 9.35712 -4.18543 10.5323
rclavicle -4.49253e-014 -3.37934e-015
rhumerus -87.414 1.56036 -93.667
rradius 87.0359
rwrist 0.536174
rhand -33.8294 -14.2806
rfingers 7.12502
rthumb -7.01491 -44.1443
lclavicle -4.49253e-014 -3.37934e-015
lhumerus -40.0714 -46.0754 103.12
lradius 111.612
lwrist -16.3865
lhand -37.1699 6.38431
lfingers 7.12502
lthumb -10.2385 36.1151
rfemur -46.6984 -11.854 26.0287
rtibia 47.5298
rfoot -164.44 2.74726
rtoes -6.36173
lfemur 9.02917 -13.2213 -20.7194
ltibia 31.933
lfoot 18.6921 6.52382
ltoes -4.86397
100
root 7.81642 17.9691 4.23755 -168.562 -11.3631 177.259
lowerback 1.69819 -3.72502 -6.36536
upperback -0.959962 -5.10435 1.74052
thorax -1.23035 -2.48727 5.47197
lowerneck -11.6956 -5.17758 -19.4391
upperneck 17.3434 -9.32365 23.0727
head 9.4015 -4.23228 10.4725
rclavicle 6.66923e-014 9.93923e-015
rhumerus -85.3829 1.35046 -92.5797
rradius 87.668
rwrist 0.822459
rhand -34.3836 -14.617
rfingers 7.12502
rthumb -7.54984 -44.4622
lclavicle 6.66923e-014 9.93923e-015
lhumerus -42.0254 -44.3378 103.295
lradius 109.408
lwrist -16.5197
lhand -35.7064 6.03926
lfingers 7.12502
lthumb -8.82649 35.8347
rfemur -45.7903 -13.2102 26.5024
rtibia 47.4086
rfoot -164.015 2.44093
rtoes -6.92112
lfemur 8.34868 -12.4617 -21.2335
ltibia 34.8946
lfoot 19.5151 6.10344
ltoes -1.68848
101
root 7.82275 17.9176 3.81024 -169.172 -10.673 176.808
lowerback 2.31234 -3.50444 -6.6771
upperback -0.939167 -4.85931 1.65098
thorax -1.57069 -2.34823 5.59752
lowerneck -11.6126 -5.19264 -19.3877
upperneck 17.5301 -9.34483 22.8013
head 9.43307 -4.26157 10.3575
rclavicle -6.1822e-014 7.55382e-015
rhumerus -83.4982 1.18113 -91.7578
rradius 88.1829
rwrist 1.37204
rhand -35.5826 -15.0533
rfingers 7.12502
rthumb -8.70703 -44.8537
lclavicle -6.1822e-014 7.55382e-015
lhumerus -44.8461 -42.5319 104.074
lradius 107.03
lwrist -15.9465
lhand -35.2353 6.60769
lfingers 7.12502
lthumb -8.37185 36.4218
rfemur -44.3992 -14.0313 26.5015
rtibia 47.966
rfoot -164.33 2.27202
rtoes -10.6148
lfemur 7.7251 -11.4953 -21.8099
ltibia 38.3885
lfoot 18.9572 4.80296
ltoes -1.40965
102
root 7.82169 17.8498 3.37849 -169.788 -9.9841 176.48
lowerback 2.67772 -3.27543 -6.85709
upperback -0.803862 -4.58095 1.63762
thorax -1.66317 -2.20652 5.7013
lowerneck -11.5248 -6.69996 -19.2936
upperneck 18.1193 -9.09122 22.2906
head 9.61544 -3.26535 10.3346
rclavicle 5.00937e-014 1.94809e-014
rhumerus -81.2713 1.22353 -90.8828
rradius 88.6453
rwrist 1.91363
rhand -36.2824 -14.7322
rfingers 7.12502
rthumb -9.38227 -44.5034
lclavicle 5.00937e-014 1.94809e-014
lhumerus -47.0388 -40.3676 104.314
lradius 103.827
lwrist -17.3372
lhand -35.4366 7.55571
lfingers 7.12502
lthumb -8.56609 37.3619
rfemur -42.8471 -14.9317 26.4418
rtibia 48.9987
rfoot -164.966 3.00722
rtoes -12.6307
lfemur 6.8512 -10.4112 -22.1691
ltibia 42.2625
lfoot 18.1009 3.39731
ltoes -0.8439
103
root 7.82159 17.7632 2.95605 -170.484 -9.08238 176.166
lowerback 3.1082 -2.92416 -7.02168
upperback -0.583802 -4.14591 1.50232
thorax -1.73949 -1.99056 5.66397
lowerneck -11.3752 -5.41288 -19.2081
upperneck 17.3499 -9.54657 22.2704
head 9.33565 -4.37524 10.0619
rclavicle -1.7344e-014 1.59028e-015
rhumerus -78.5747 1.02491 -90.145
rradius 88.8016
rwrist 3.037
rhand -37.2613 -14.2385
rfingers 7.12502
rthumb -10.3267 -43.965
lclavicle -1.7344e-014 1.59028e-015
lhumerus -48.9745 -38.4872 104.374
lradius 100.425
lwrist -17.2135
lhand -34.5018 8.21055
lfingers 7.12502
lthumb -7.66397 38.0517
rfemur -41.0726 -15.3914 26.1287
rtibia 50.201
rfoot -165.653 4.57462
rtoes -13.1909
lfemur 5.79723 -9.09188 -22.4634
ltibia 46.4182
lfoot 16.9964 1.87236
ltoes -1.1463
104
root 7.83484 17.6714 2.539 -171.148 -7.86093 176.223
lowerback 3.50812 -2.45639 -7.13139
upperback -0.408366 -3.54945 1.63037
thorax -1.85598 -1.69139 5.86162
lowerneck -11.057 -5.53221 -19.371
upperneck 17.027 -9.63493 22.182
head 9.19087 -4.43915 10.0274
rclavicle 2.9122e-014 1.98785e-015
rhumerus -75.7497 1.06994 -89.1552
rradius 88.9917
rwrist 4.46663
rhand -37.2419 -13.8856
rfingers 7.12502
rthumb -10.308 -43.6129
lclavicle 2.9122e-014 1.98785e-015
lhumerus -50.8589 -36.3338 104.36
lradius 96.7832
lwrist -17.9535
lhand -34.4981 9.28499
lfingers 7.12502
lthumb -7.66038 39.1262
rfemur -39.2908 -15.0521 26.0459
rtibia 51.2412
rfoot -166.715 5.92865
rtoes -13.4082
lfemur 4.4533 -7.52523 -22.2572
ltibia 50.7147
lfoot 15.9979 0.680764
ltoes -1.69785
